<?xml version="1.0" standalone="no"?>
<!DOCTYPE svg PUBLIC "-//W3C//DTD SVG 20010904//EN"
 "http://www.w3.org/TR/2001/REC-SVG-20010904/DTD/svg10.dtd">
<svg version="1.0" xmlns="http://www.w3.org/2000/svg"
 width="120.000000pt" height="120.000000pt" viewBox="0 0 120.000000 120.000000"
 preserveAspectRatio="xMidYMid meet">

<g transform="translate(0.000000,120.000000) scale(0.100000,-0.100000)"
fill="#000000" stroke="none">
<path d="M469 1185 c-179 -44 -328 -165 -404 -330 -41 -87 -55 -154 -55 -255
0 -106 14 -170 60 -265 145 -300 507 -419 813 -268 137 68 262 222 302 373 19
72 19 248 0 320 -38 144 -163 301 -292 368 -126 66 -294 88 -424 57z m209
-212 c2 -14 10 -23 21 -23 10 0 38 -10 63 -23 38 -19 48 -21 65 -10 17 11 24
8 63 -32 39 -40 43 -48 33 -65 -10 -16 -8 -28 12 -72 14 -29 25 -58 25 -65 0
-6 10 -13 23 -15 20 -3 22 -8 22 -68 0 -60 -2 -65 -22 -68 -13 -2 -23 -9 -23
-15 0 -7 -11 -36 -25 -65 -20 -44 -22 -56 -12 -72 10 -17 6 -25 -33 -65 -39
-40 -46 -43 -63 -32 -17 11 -27 9 -65 -10 -25 -13 -53 -23 -63 -23 -11 0 -19
-9 -21 -22 -3 -21 -9 -23 -70 -26 -63 -3 -68 -1 -68 18 0 11 -8 23 -17 26 -10
3 -41 16 -69 29 -48 22 -52 22 -68 7 -15 -15 -20 -13 -64 31 -40 40 -45 50
-35 66 17 27 -32 149 -61 153 -19 3 -21 10 -21 68 0 58 2 65 21 68 29 4 78
126 61 153 -10 16 -5 26 35 66 44 44 49 46 64 31 16 -15 20 -15 68 7 28 13 59
26 69 29 9 3 17 15 17 26 0 19 5 21 68 18 61 -3 67 -5 70 -25z"/>
<path d="M570 951 c0 -14 -9 -21 -32 -26 -18 -4 -56 -20 -85 -35 -45 -24 -54
-26 -64 -13 -10 12 -16 10 -40 -13 -22 -21 -25 -30 -17 -43 7 -12 4 -28 -16
-65 -14 -26 -28 -63 -32 -82 -4 -24 -12 -34 -25 -34 -15 0 -19 -7 -19 -40 0
-33 4 -40 19 -40 13 0 21 -10 25 -34 4 -19 18 -56 32 -82 20 -37 23 -53 16
-65 -8 -13 -5 -22 17 -43 24 -23 30 -25 40 -13 10 13 19 11 64 -13 29 -15 67
-31 85 -35 23 -5 32 -12 32 -26 0 -28 65 -28 73 0 3 13 20 24 48 31 24 6 62
22 85 35 36 21 43 22 55 9 13 -13 18 -11 39 11 20 22 22 29 12 45 -10 16 -8
26 9 55 12 19 27 54 34 78 9 30 18 43 34 45 17 3 21 10 21 42 0 32 -4 39 -21
42 -16 2 -25 15 -34 45 -7 24 -22 59 -34 78 -17 29 -19 39 -9 55 10 16 8 23
-12 45 -21 22 -26 24 -39 11 -12 -13 -19 -12 -55 9 -23 13 -61 29 -85 35 -28
7 -45 18 -48 31 -8 28 -73 28 -73 0z m50 -87 c0 -9 9 -18 20 -21 13 -3 20 -14
20 -28 0 -13 7 -25 15 -29 11 -4 15 -22 15 -71 0 -61 2 -66 25 -75 20 -8 25
-16 25 -44 0 -29 5 -36 30 -45 l31 -10 -3 -98 -3 -98 -185 0 -185 0 -3 123 -3
122 26 12 c19 8 25 19 25 43 0 24 6 35 25 43 21 10 25 19 25 52 0 27 5 43 15
46 8 4 15 17 15 30 0 17 6 24 20 24 13 0 20 7 20 20 0 11 7 20 15 20 8 0 15
-7 15 -16z"/>
<path d="M580 800 c0 -5 11 -10 25 -10 14 0 25 5 25 10 0 6 -11 10 -25 10 -14
0 -25 -4 -25 -10z"/>
<path d="M560 590 l0 -170 21 21 c18 18 23 19 42 6 12 -8 25 -27 28 -43 4 -16
7 58 8 164 l1 192 -50 0 -50 0 0 -170z m60 130 c0 -11 -4 -20 -9 -20 -14 0
-23 18 -16 30 10 17 25 11 25 -10z m0 -55 c0 -8 -7 -15 -15 -15 -8 0 -15 7
-15 15 0 8 7 15 15 15 8 0 15 -7 15 -15z m0 -50 c0 -8 -7 -15 -15 -15 -8 0
-15 7 -15 15 0 8 7 15 15 15 8 0 15 -7 15 -15z m0 -55 c0 -11 -4 -20 -9 -20
-14 0 -23 18 -16 30 10 17 25 11 25 -10z m0 -55 c0 -8 -7 -15 -15 -15 -8 0
-15 7 -15 15 0 8 7 15 15 15 8 0 15 -7 15 -15z"/>
<path d="M500 520 c0 -87 4 -140 10 -140 6 0 10 53 10 140 0 87 -4 140 -10
140 -6 0 -10 -53 -10 -140z"/>
<path d="M690 495 c0 -70 4 -115 10 -115 6 0 10 45 10 115 0 70 -4 115 -10
115 -6 0 -10 -45 -10 -115z"/>
<path d="M457 573 c-11 -11 -8 -193 3 -193 6 0 10 40 10 100 0 100 -1 106 -13
93z"/>
<path d="M740 450 c0 -40 4 -70 10 -70 6 0 10 30 10 70 0 40 -4 70 -10 70 -6
0 -10 -30 -10 -70z"/>
<path d="M600 400 c0 -11 5 -20 10 -20 6 0 10 9 10 20 0 11 -4 20 -10 20 -5 0
-10 -9 -10 -20z"/>
</g>
</svg>
