<?xml version="1.0" standalone="no"?>
<!DOCTYPE svg PUBLIC "-//W3C//DTD SVG 20010904//EN"
 "http://www.w3.org/TR/2001/REC-SVG-20010904/DTD/svg10.dtd">
<svg version="1.0" xmlns="http://www.w3.org/2000/svg"
 width="120.000000pt" height="120.000000pt" viewBox="0 0 120.000000 120.000000"
 preserveAspectRatio="xMidYMid meet">

<g transform="translate(0.000000,120.000000) scale(0.100000,-0.100000)"
fill="#000000" stroke="none">
<path d="M537 984 c-4 -4 -7 -15 -7 -24 0 -24 -127 -72 -151 -57 -16 10 -25 5
-59 -28 -39 -38 -50 -68 -31 -80 6 -3 -1 -28 -14 -58 -14 -28 -25 -57 -25 -64
0 -6 -10 -13 -22 -15 -21 -3 -23 -9 -26 -70 -3 -66 -2 -68 21 -68 19 0 26 -8
36 -42 7 -24 19 -53 27 -65 12 -19 12 -27 2 -43 -11 -18 -8 -25 34 -67 39 -39
49 -44 62 -34 22 19 140 -29 144 -58 3 -19 10 -21 72 -21 63 0 69 2 72 22 2
13 13 24 29 28 14 4 41 15 61 24 29 14 41 15 58 6 19 -10 27 -6 67 35 42 42
45 47 31 62 -14 14 -14 20 7 67 12 28 25 59 28 69 4 9 16 17 27 17 19 0 21 5
18 68 -3 61 -5 67 -25 70 -14 2 -23 10 -23 21 0 10 -11 38 -23 64 -22 42 -22
47 -8 62 14 14 11 20 -32 63 -41 41 -49 45 -67 35 -16 -10 -28 -8 -72 12 -29
14 -58 25 -65 25 -6 0 -13 10 -15 23 -3 20 -9 22 -63 25 -34 2 -64 0 -68 -4z
m103 -48 c0 -19 7 -25 33 -30 17 -3 56 -18 85 -32 39 -19 56 -23 66 -15 19 16
64 -33 47 -53 -9 -11 -7 -22 10 -50 12 -20 27 -55 34 -79 7 -26 20 -46 33 -52
30 -13 32 -75 2 -75 -14 0 -22 -11 -30 -42 -7 -24 -22 -62 -34 -84 -17 -30
-21 -46 -14 -59 14 -23 -29 -70 -49 -54 -10 9 -27 5 -71 -14 -31 -14 -69 -29
-84 -32 -18 -5 -28 -14 -28 -26 0 -15 -7 -19 -40 -19 -33 0 -40 3 -40 20 0 14
-11 22 -42 31 -24 6 -60 20 -81 32 -30 17 -42 19 -56 10 -15 -10 -23 -8 -41
12 -18 20 -21 27 -11 39 10 12 8 23 -10 58 -12 24 -28 61 -34 83 -9 28 -18 41
-34 43 -17 3 -21 10 -21 37 0 27 4 34 21 37 16 2 26 16 38 58 10 30 25 67 35
83 15 22 16 30 6 42 -11 13 -9 20 10 40 18 19 26 22 37 13 10 -8 29 -3 81 21
38 17 76 31 85 31 10 0 17 8 17 18 0 26 9 32 47 32 28 0 33 -3 33 -24z"/>
<path d="M590 849 c0 -38 24 -35 28 4 2 19 -1 27 -12 27 -11 0 -16 -10 -16
-31z"/>
<path d="M454 819 c-3 -6 3 -21 15 -32 16 -16 23 -19 33 -9 9 9 7 16 -7 32
-20 23 -31 25 -41 9z"/>
<path d="M710 815 c-7 -8 -9 -22 -6 -32 6 -15 9 -15 28 4 11 12 17 26 14 32
-10 15 -21 14 -36 -4z"/>
<path d="M530 771 c-41 -41 -47 -73 -22 -135 11 -28 23 -67 25 -86 17 -112 30
-140 70 -140 34 0 54 34 62 106 4 38 15 89 26 113 28 65 25 97 -15 137 -46 46
-104 48 -146 5z m117 -16 c30 -21 38 -67 18 -106 -10 -18 -20 -53 -24 -78 -5
-41 -9 -46 -35 -49 -33 -4 -46 10 -46 50 0 15 -8 49 -19 75 -21 54 -16 82 21
107 28 20 57 20 85 1z m-17 -278 c0 -19 -20 -36 -36 -30 -8 3 -14 14 -14 24 0
14 7 19 25 19 14 0 25 -6 25 -13z"/>
<path d="M590 695 c0 -8 7 -15 15 -15 8 0 15 7 15 15 0 8 -7 15 -15 15 -8 0
-15 -7 -15 -15z"/>
<path d="M400 680 c0 -16 7 -20 30 -20 23 0 30 4 30 20 0 16 -7 20 -30 20 -23
0 -30 -4 -30 -20z"/>
<path d="M745 690 c-10 -16 4 -30 31 -30 17 0 24 5 24 20 0 15 -7 20 -24 20
-14 0 -28 -4 -31 -10z"/>
<path d="M465 570 c-14 -16 -16 -23 -7 -32 10 -10 17 -8 33 8 17 17 18 22 6
32 -11 9 -18 8 -32 -8z"/>
<path d="M702 577 c-17 -20 22 -57 40 -39 10 10 8 17 -8 33 -17 17 -22 18 -32
6z"/>
<path d="M418 449 c-22 -23 -23 -39 -3 -39 8 0 15 -4 15 -10 0 -15 19 -12 36
4 16 17 19 36 4 36 -5 0 -10 7 -10 15 0 20 -21 17 -42 -6z m32 -19 c0 -5 -4
-10 -10 -10 -5 0 -10 5 -10 10 0 6 5 10 10 10 6 0 10 -4 10 -10z"/>
<path d="M770 455 c0 -8 -7 -15 -15 -15 -8 0 -15 -7 -15 -15 0 -8 7 -15 15
-15 8 0 15 -4 15 -10 0 -5 7 -10 15 -10 8 0 15 5 15 10 0 6 7 10 15 10 21 0
19 16 -5 40 -24 24 -40 26 -40 5z m30 -25 c0 -5 -4 -10 -10 -10 -5 0 -10 5
-10 10 0 6 5 10 10 10 6 0 10 -4 10 -10z"/>
<path d="M590 350 c0 -5 -7 -10 -15 -10 -21 0 -19 -16 5 -40 24 -24 40 -26 40
-5 0 8 5 15 10 15 15 0 12 19 -4 36 -17 16 -36 19 -36 4z m20 -30 c0 -5 -4
-10 -10 -10 -5 0 -10 5 -10 10 0 6 5 10 10 10 6 0 10 -4 10 -10z"/>
</g>
</svg>
