<?xml version="1.0" standalone="no"?>
<!DOCTYPE svg PUBLIC "-//W3C//DTD SVG 20010904//EN"
 "http://www.w3.org/TR/2001/REC-SVG-20010904/DTD/svg10.dtd">
<svg version="1.0" xmlns="http://www.w3.org/2000/svg"
 width="120.000000pt" height="120.000000pt" viewBox="0 0 120.000000 120.000000"
 preserveAspectRatio="xMidYMid meet">

<g transform="translate(0.000000,120.000000) scale(0.100000,-0.100000)"
fill="#000000" stroke="none">
<path d="M537 984 c-4 -4 -7 -15 -7 -25 0 -11 -13 -22 -37 -29 -21 -7 -49 -19
-62 -27 -19 -13 -27 -13 -47 -2 -22 12 -28 9 -64 -26 -39 -38 -50 -68 -31 -80
6 -3 -1 -28 -14 -58 -14 -28 -25 -60 -25 -69 0 -13 -8 -18 -25 -18 -26 0 -26
-1 -23 -67 3 -62 5 -68 26 -71 12 -2 22 -9 22 -15 0 -7 11 -36 25 -65 20 -44
22 -56 12 -72 -10 -18 -6 -25 31 -62 37 -37 44 -41 62 -31 16 10 28 8 72 -12
29 -14 58 -25 65 -25 6 0 13 -10 15 -23 3 -20 9 -22 71 -25 62 -3 67 -1 67 18
0 11 8 23 18 27 9 3 41 16 69 29 30 13 55 19 58 13 12 -19 42 -8 80 31 35 36
38 42 26 64 -11 20 -11 28 2 47 8 13 20 41 26 61 9 26 19 38 34 40 20 3 22 9
22 68 0 60 -2 65 -22 68 -13 2 -23 8 -23 14 0 6 -12 37 -26 69 -22 49 -25 61
-14 75 12 13 7 22 -33 61 -39 40 -48 45 -61 33 -14 -11 -26 -8 -75 14 -32 14
-63 26 -69 26 -6 0 -12 10 -14 23 -3 20 -9 22 -63 25 -34 2 -64 0 -68 -4z
m105 -52 c3 -11 22 -23 49 -31 24 -7 61 -22 81 -34 31 -17 40 -18 53 -7 14 11
20 10 42 -13 23 -22 24 -28 13 -42 -11 -13 -10 -22 7 -53 12 -20 27 -57 34
-81 8 -27 20 -46 31 -49 26 -6 25 -68 -1 -75 -12 -3 -22 -18 -26 -38 -4 -19
-19 -56 -32 -83 -19 -38 -23 -54 -15 -67 16 -25 -30 -68 -53 -49 -12 10 -20 9
-42 -6 -16 -10 -53 -25 -83 -35 -42 -12 -56 -22 -58 -38 -3 -17 -10 -21 -37
-21 -27 0 -34 4 -37 21 -2 17 -14 25 -49 33 -25 7 -63 22 -83 34 -31 18 -41
20 -53 11 -21 -18 -72 33 -54 54 9 12 7 22 -11 53 -12 20 -27 58 -34 83 -8 35
-16 47 -33 49 -17 3 -21 10 -21 37 0 27 4 34 21 37 16 2 25 15 35 48 7 25 23
62 35 83 17 31 18 41 8 53 -18 22 26 68 50 52 13 -8 29 -4 67 15 27 13 64 28
83 32 20 4 35 14 38 26 7 26 69 27 75 1z"/>
<path d="M565 810 c-3 -5 -1 -12 5 -15 8 -5 7 -11 -1 -21 -13 -16 1 -24 41
-21 20 2 25 8 27 34 2 29 1 31 -32 31 -19 0 -37 -4 -40 -8z"/>
<path d="M451 781 c-18 -25 -19 -30 -6 -41 11 -10 15 -10 15 0 0 6 12 -2 26
-19 25 -30 28 -31 114 -31 93 0 120 -11 120 -49 0 -35 -20 -41 -152 -41 -115
0 -130 -2 -148 -20 -49 -49 -4 -110 81 -110 74 0 116 -55 74 -96 -33 -33 -6
-81 39 -70 31 8 40 33 21 62 -8 13 -15 35 -15 48 0 14 -13 40 -29 58 -24 27
-36 32 -89 36 -63 4 -84 21 -61 48 9 11 43 14 140 14 116 0 131 2 149 20 27
27 26 81 -1 106 -16 15 -41 20 -112 24 -80 4 -92 7 -89 22 4 22 -26 68 -43 68
-8 0 -23 -13 -34 -29z m159 -441 c0 -5 -2 -10 -4 -10 -3 0 -8 5 -11 10 -3 6
-1 10 4 10 6 0 11 -4 11 -10z"/>
<path d="M347 682 c-15 -30 2 -88 18 -62 5 8 11 7 21 -1 16 -13 24 1 21 41 -2
19 -8 25 -29 27 -15 1 -29 -1 -31 -5z"/>
<path d="M796 681 c-5 -9 -1 -45 6 -57 4 -5 19 -10 35 -9 25 0 28 3 28 35 0
32 -2 35 -33 36 -18 1 -34 -1 -36 -5z"/>
<path d="M667 522 c-2 -4 -3 -20 -3 -37 1 -27 4 -30 36 -30 32 0 35 3 35 28 1
16 -4 31 -9 35 -15 9 -55 12 -59 4z"/>
</g>
</svg>
