<?xml version="1.0" standalone="no"?>
<!DOCTYPE svg PUBLIC "-//W3C//DTD SVG 20010904//EN"
 "http://www.w3.org/TR/2001/REC-SVG-20010904/DTD/svg10.dtd">
<svg version="1.0" xmlns="http://www.w3.org/2000/svg"
 width="120.000000pt" height="120.000000pt" viewBox="0 0 120.000000 120.000000"
 preserveAspectRatio="xMidYMid meet">

<g transform="translate(0.000000,120.000000) scale(0.100000,-0.100000)"
fill="#000000" stroke="none">
<path d="M532 1189 c-135 -17 -242 -68 -341 -162 -122 -118 -183 -261 -183
-432 0 -177 62 -318 195 -442 112 -104 240 -153 402 -153 174 0 297 51 420
175 123 122 175 248 175 420 0 172 -52 298 -175 420 -137 138 -306 197 -493
174z m138 -209 c0 -11 8 -23 18 -27 9 -3 41 -16 69 -29 30 -13 55 -19 58 -13
12 19 42 8 80 -31 34 -35 38 -43 27 -60 -9 -16 -7 -28 13 -72 14 -29 25 -61
25 -70 0 -12 8 -18 25 -18 24 0 25 -2 25 -65 0 -63 -1 -65 -25 -65 -17 0 -25
-6 -25 -17 0 -10 -11 -42 -25 -71 -20 -44 -22 -56 -13 -72 11 -17 7 -25 -27
-60 -38 -39 -68 -50 -80 -31 -3 6 -28 0 -58 -13 -28 -13 -60 -26 -69 -29 -10
-4 -18 -16 -18 -27 0 -19 -5 -21 -67 -18 -62 3 -68 5 -71 25 -2 13 -9 23 -15
23 -7 0 -36 11 -65 25 -44 20 -56 22 -72 13 -17 -11 -25 -7 -60 27 -39 38 -50
68 -31 80 6 3 0 28 -13 58 -13 28 -26 60 -29 70 -4 9 -16 17 -27 17 -18 0 -20
6 -20 65 0 59 2 65 20 65 11 0 23 8 27 18 3 9 16 41 29 69 13 30 19 55 13 58
-19 12 -8 42 31 80 35 34 43 38 60 27 16 -9 28 -7 72 13 29 14 59 25 66 25 6
0 12 8 12 18 0 29 8 32 77 32 57 0 63 -2 63 -20z"/>
<path d="M568 949 c-2 -16 -16 -26 -58 -38 -30 -10 -67 -25 -83 -35 -22 -15
-30 -16 -43 -5 -13 10 -19 8 -41 -14 -22 -22 -24 -28 -14 -41 11 -13 10 -21
-5 -43 -10 -16 -25 -53 -35 -83 -12 -42 -22 -56 -38 -58 -31 -5 -31 -69 0 -74
16 -2 26 -16 38 -58 10 -30 25 -67 35 -83 15 -22 16 -30 5 -43 -10 -13 -8 -19
14 -41 22 -22 28 -24 41 -14 13 11 21 10 43 -5 16 -10 53 -25 83 -35 42 -12
56 -22 58 -38 3 -17 10 -21 37 -21 27 0 34 4 37 21 2 16 15 25 43 34 22 6 59
22 83 34 35 18 46 20 58 10 12 -10 20 -8 41 14 22 21 24 29 14 41 -10 12 -8
23 10 58 12 24 28 61 34 83 9 28 18 41 34 43 17 3 21 10 21 37 0 27 -4 34 -21
37 -16 2 -25 15 -34 43 -6 22 -22 59 -34 83 -18 35 -20 46 -10 58 10 12 8 20
-14 41 -21 22 -29 24 -41 14 -12 -10 -23 -8 -58 10 -24 12 -61 28 -83 34 -28
9 -41 18 -43 34 -3 17 -10 21 -37 21 -27 0 -34 -4 -37 -21z m-53 -243 c10 -15
14 -33 10 -49 -7 -27 9 -45 21 -25 5 7 7 25 6 39 -6 51 57 79 93 42 12 -11 15
-26 12 -49 -4 -22 -1 -34 8 -38 19 -7 25 3 18 35 -7 37 19 69 57 69 35 0 50
-17 50 -59 0 -20 7 -45 15 -55 20 -26 20 -85 0 -92 -9 -4 -15 -19 -15 -35 0
-28 -1 -29 -55 -29 -54 0 -55 0 -55 30 0 17 -4 30 -10 30 -5 0 -10 -13 -10
-30 0 -30 -1 -30 -55 -30 -54 0 -55 0 -55 30 0 38 -18 40 -22 3 -3 -27 -5 -28
-58 -28 -51 0 -55 2 -58 25 -2 14 -8 29 -13 35 -14 14 -11 68 7 93 9 13 13 31
9 43 -18 56 67 95 100 45z"/>
<path d="M453 684 c-8 -21 13 -42 28 -27 13 13 5 43 -11 43 -6 0 -13 -7 -17
-16z"/>
<path d="M584 685 c-7 -18 3 -35 21 -35 15 0 24 19 18 38 -6 17 -32 15 -39 -3z"/>
<path d="M721 686 c-9 -10 -8 -16 4 -26 19 -16 41 1 32 24 -8 20 -21 20 -36 2z"/>
<path d="M437 602 c-21 -23 -22 -51 -2 -58 8 -4 15 -17 15 -30 0 -17 6 -24 20
-24 13 0 20 7 20 19 0 10 7 24 15 31 20 17 19 43 -3 63 -24 22 -45 21 -65 -1z"/>
<path d="M570 600 c-24 -24 -26 -46 -5 -54 8 -3 15 -17 15 -31 0 -20 5 -25 25
-25 20 0 25 5 25 25 0 14 7 28 15 31 29 12 -7 74 -42 74 -7 0 -22 -9 -33 -20z"/>
<path d="M706 604 c-18 -17 -21 -50 -6 -59 6 -3 10 -17 10 -31 0 -19 5 -24 25
-24 20 0 25 5 25 25 0 14 7 28 15 31 21 8 19 30 -5 54 -24 24 -43 25 -64 4z"/>
</g>
</svg>
